<svg xmlns="http://www.w3.org/2000/svg" xmlns:xlink="http://www.w3.org/1999/xlink" version="1.1" width="18" height="18" viewBox="0 0 256 256" xml:space="preserve">
<defs>
</defs>
<g style="stroke: none; stroke-width: 0; stroke-dasharray: none; stroke-linecap: butt; stroke-linejoin: miter; stroke-miterlimit: 10; fill: none; fill-rule: nonzero; opacity: 1;" transform="translate(1.4065934065934016 1.4065934065934016) scale(2.81 2.81)">
    <path d="M89.634,59.683c-0.338-0.276-0.816-0.302-1.184-0.062c-16.514,10.864-38.661,8.589-52.661-5.41c-14-14.002-16.275-36.15-5.41-52.661c0.24-0.366,0.215-0.845-0.062-1.183c-0.277-0.339-0.741-0.46-1.148-0.294c-5.826,2.349-11.048,5.809-15.523,10.283c-18.195,18.195-18.195,47.802,0,65.997c11.95,11.949,23.901,16.5,35.85,16.5c11.951,0,23.901-4.549,32.999-13.646c4.475-4.476,7.935-9.699,10.284-15.523C90.091,60.425,89.972,59.96,89.634,59.683z" style="fill: #ffffff;" />
    <path d="M77.254,40.17c-4.894-1.63-8.788-5.525-10.42-10.419c-0.27-0.81-0.992-1.334-1.841-1.334c-0.848,0-1.571,0.524-1.84,1.335c-1.631,4.893-5.526,8.787-10.419,10.418c-0.811,0.27-1.334,0.993-1.334,1.841c0,0.848,0.524,1.571,1.334,1.841c4.894,1.631,8.788,5.525,10.418,10.419c0.27,0.811,0.992,1.334,1.84,1.334c0.849,0,1.572-0.524,1.841-1.334c1.631-4.893,5.526-8.788,10.419-10.419c0.812-0.27,1.335-0.992,1.335-1.841C78.588,41.162,78.064,40.439,77.254,40.17z" style="fill: #ffffff;" />
    <path d="M81.635,11.577c-2.597-0.865-4.664-2.932-5.53-5.529c-0.208-0.626-0.789-1.046-1.446-1.046c-0.657,0-1.239,0.421-1.448,1.047c-0.864,2.596-2.93,4.663-5.527,5.528c-0.626,0.208-1.047,0.789-1.047,1.446s0.421,1.238,1.046,1.446c2.596,0.865,4.663,2.932,5.529,5.529c0.208,0.625,0.788,1.046,1.445,1.047c0.001,0,0.001,0,0.002,0c0.656,0,1.238-0.421,1.446-1.046c0.866-2.597,2.933-4.664,5.53-5.529c0.625-0.209,1.046-0.79,1.046-1.446C82.681,12.367,82.26,11.786,81.635,11.577z" style="fill: #ffffff;" />
    <path d="M52.274,18.689c-3.232-1.076-5.805-3.649-6.882-6.881c-0.224-0.674-0.849-1.126-1.556-1.126c-0.706,0-1.331,0.453-1.556,1.126c-1.077,3.232-3.649,5.804-6.881,6.881c-0.674,0.224-1.126,0.849-1.126,1.556s0.453,1.331,1.126,1.556c3.232,1.077,5.805,3.65,6.881,6.882c0.224,0.674,0.849,1.126,1.556,1.126c0.706,0,1.331-0.453,1.556-1.126c1.077-3.232,3.649-5.805,6.881-6.882c0.674-0.224,1.127-0.849,1.127-1.556s-0.453-1.331-1.127-1.556z" style="fill: #ffffff;" />
</g>
</svg>
